<?xml version="1.0" encoding="UTF-8"?>
<svg xmlns="http://www.w3.org/2000/svg" width="800" height="500" viewBox="0 0 800 500">
<rect width="100%" height="100%" fill="white"/>
<line x1="70.0" y1="30" x2="70.0" y2="440" stroke="#eee" stroke-width="1"/>
<text x="70.0" y="460" text-anchor="middle" font-size="11" fill="#666">0</text>
<line x1="176.0" y1="30" x2="176.0" y2="440" stroke="#eee" stroke-width="1"/>
<text x="176.0" y="460" text-anchor="middle" font-size="11" fill="#666">5</text>
<line x1="282.0" y1="30" x2="282.0" y2="440" stroke="#eee" stroke-width="1"/>
<text x="282.0" y="460" text-anchor="middle" font-size="11" fill="#666">10</text>
<line x1="387.9" y1="30" x2="387.9" y2="440" stroke="#eee" stroke-width="1"/>
<text x="387.9" y="460" text-anchor="middle" font-size="11" fill="#666">15</text>
<line x1="493.9" y1="30" x2="493.9" y2="440" stroke="#eee" stroke-width="1"/>
<text x="493.9" y="460" text-anchor="middle" font-size="11" fill="#666">20</text>
<line x1="599.9" y1="30" x2="599.9" y2="440" stroke="#eee" stroke-width="1"/>
<text x="599.9" y="460" text-anchor="middle" font-size="11" fill="#666">25</text>
<line x1="705.9" y1="30" x2="705.9" y2="440" stroke="#eee" stroke-width="1"/>
<text x="705.9" y="460" text-anchor="middle" font-size="11" fill="#666">30</text>
<line x1="70" y1="440.0" x2="770" y2="440.0" stroke="#eee" stroke-width="1"/>
<text x="62" y="444.0" text-anchor="end" font-size="11" fill="#666">0</text>
<line x1="70" y1="407.9" x2="770" y2="407.9" stroke="#eee" stroke-width="1"/>
<text x="62" y="411.9" text-anchor="end" font-size="11" fill="#666">30</text>
<line x1="70" y1="375.8" x2="770" y2="375.8" stroke="#eee" stroke-width="1"/>
<text x="62" y="379.8" text-anchor="end" font-size="11" fill="#666">60</text>
<line x1="70" y1="343.7" x2="770" y2="343.7" stroke="#eee" stroke-width="1"/>
<text x="62" y="347.7" text-anchor="end" font-size="11" fill="#666">90</text>
<line x1="70" y1="311.6" x2="770" y2="311.6" stroke="#eee" stroke-width="1"/>
<text x="62" y="315.6" text-anchor="end" font-size="11" fill="#666">120</text>
<line x1="70" y1="279.5" x2="770" y2="279.5" stroke="#eee" stroke-width="1"/>
<text x="62" y="283.5" text-anchor="end" font-size="11" fill="#666">150</text>
<line x1="70" y1="247.4" x2="770" y2="247.4" stroke="#eee" stroke-width="1"/>
<text x="62" y="251.4" text-anchor="end" font-size="11" fill="#666">180</text>
<line x1="70" y1="215.3" x2="770" y2="215.3" stroke="#eee" stroke-width="1"/>
<text x="62" y="219.3" text-anchor="end" font-size="11" fill="#666">210</text>
<line x1="70" y1="183.2" x2="770" y2="183.2" stroke="#eee" stroke-width="1"/>
<text x="62" y="187.2" text-anchor="end" font-size="11" fill="#666">240</text>
<line x1="70" y1="151.1" x2="770" y2="151.1" stroke="#eee" stroke-width="1"/>
<text x="62" y="155.1" text-anchor="end" font-size="11" fill="#666">270</text>
<line x1="70" y1="119.0" x2="770" y2="119.0" stroke="#eee" stroke-width="1"/>
<text x="62" y="123.0" text-anchor="end" font-size="11" fill="#666">300</text>
<line x1="70" y1="86.9" x2="770" y2="86.9" stroke="#eee" stroke-width="1"/>
<text x="62" y="90.9" text-anchor="end" font-size="11" fill="#666">330</text>
<line x1="70" y1="54.8" x2="770" y2="54.8" stroke="#eee" stroke-width="1"/>
<text x="62" y="58.8" text-anchor="end" font-size="11" fill="#666">360</text>
<line x1="70" y1="30" x2="70" y2="440" stroke="#333" stroke-width="1.5"/>
<line x1="70" y1="440" x2="770" y2="440" stroke="#333" stroke-width="1.5"/>
<text x="420.0" y="495" text-anchor="middle" font-size="13" fill="#333">GiB freed</text>
<text transform="rotate(-90)" x="-235" y="16" text-anchor="middle" font-size="13" fill="#333">Time (seconds)</text>
<path d="M 398.2,362.3 L 410.2,374.3 M 410.2,362.3 L 398.2,374.3" stroke="#9C27B0" stroke-width="2" opacity="0.7"/>
<path d="M 437.4,335.9 L 449.4,347.9 M 449.4,335.9 L 437.4,347.9" stroke="#9C27B0" stroke-width="2" opacity="0.7"/>
<path d="M 391.5,416.0 L 403.5,428.0 M 403.5,416.0 L 391.5,428.0" stroke="#9C27B0" stroke-width="2" opacity="0.7"/>
<path d="M 242.6,419.4 L 254.6,431.4 M 254.6,419.4 L 242.6,431.4" stroke="#9C27B0" stroke-width="2" opacity="0.7"/>
<path d="M 576.5,405.8 L 588.5,417.8 M 588.5,405.8 L 576.5,417.8" stroke="#9C27B0" stroke-width="2" opacity="0.7"/>
<path d="M 323.2,409.8 L 335.2,421.8 M 335.2,409.8 L 323.2,421.8" stroke="#9C27B0" stroke-width="2" opacity="0.7"/>
<path d="M 538.8,397.6 L 550.8,409.6 M 550.8,397.6 L 538.8,409.6" stroke="#9C27B0" stroke-width="2" opacity="0.7"/>
<path d="M 255.8,378.4 L 267.8,390.4 M 267.8,378.4 L 255.8,390.4" stroke="#9C27B0" stroke-width="2" opacity="0.7"/>
<path d="M 98.7,430.8 L 110.7,442.8 M 110.7,430.8 L 98.7,442.8" stroke="#9C27B0" stroke-width="2" opacity="0.7"/>
<path d="M 202.9,429.1 L 214.9,441.1 M 214.9,429.1 L 202.9,441.1" stroke="#9C27B0" stroke-width="2" opacity="0.7"/>
<path d="M 394.8,291.5 L 406.8,303.5 M 406.8,291.5 L 394.8,303.5" stroke="#9C27B0" stroke-width="2" opacity="0.7"/>
<path d="M 319.9,421.3 L 331.9,433.3 M 331.9,421.3 L 319.9,433.3" stroke="#9C27B0" stroke-width="2" opacity="0.7"/>
<path d="M 293.9,330.6 L 305.9,342.6 M 305.9,330.6 L 293.9,342.6" stroke="#9C27B0" stroke-width="2" opacity="0.7"/>
<path d="M 279.3,419.2 L 291.3,431.2 M 291.3,419.2 L 279.3,431.2" stroke="#9C27B0" stroke-width="2" opacity="0.7"/>
<path d="M 296.4,420.7 L 308.4,432.7 M 308.4,420.7 L 296.4,432.7" stroke="#9C27B0" stroke-width="2" opacity="0.7"/>
<path d="M 691.1,265.4 L 703.1,277.4 M 703.1,265.4 L 691.1,277.4" stroke="#9C27B0" stroke-width="2" opacity="0.7"/>
<path d="M 431.2,229.5 L 443.2,241.5 M 443.2,229.5 L 431.2,241.5" stroke="#9C27B0" stroke-width="2" opacity="0.7"/>
<path d="M 317.1,383.4 L 329.1,395.4 M 329.1,383.4 L 317.1,395.4" stroke="#9C27B0" stroke-width="2" opacity="0.7"/>
<path d="M 283.6,398.4 L 295.6,410.4 M 295.6,398.4 L 283.6,410.4" stroke="#9C27B0" stroke-width="2" opacity="0.7"/>
<path d="M 314.1,409.3 L 326.1,421.3 M 326.1,409.3 L 314.1,421.3" stroke="#9C27B0" stroke-width="2" opacity="0.7"/>
<path d="M 410.9,331.0 L 422.9,343.0 M 422.9,331.0 L 410.9,343.0" stroke="#9C27B0" stroke-width="2" opacity="0.7"/>
<path d="M 576.5,354.8 L 588.5,366.8 M 588.5,354.8 L 576.5,366.8" stroke="#9C27B0" stroke-width="2" opacity="0.7"/>
<path d="M 538.6,338.2 L 550.6,350.2 M 550.6,338.2 L 538.6,350.2" stroke="#9C27B0" stroke-width="2" opacity="0.7"/>
<path d="M 207.6,412.9 L 219.6,424.9 M 219.6,412.9 L 207.6,424.9" stroke="#9C27B0" stroke-width="2" opacity="0.7"/>
<path d="M 323.2,408.3 L 335.2,420.3 M 335.2,408.3 L 323.2,420.3" stroke="#9C27B0" stroke-width="2" opacity="0.7"/>
<path d="M 398.2,339.5 L 410.2,351.5 M 410.2,339.5 L 398.2,351.5" stroke="#9C27B0" stroke-width="2" opacity="0.7"/>
<path d="M 371.4,377.6 L 383.4,389.6 M 383.4,377.6 L 371.4,389.6" stroke="#9C27B0" stroke-width="2" opacity="0.7"/>
<path d="M 499.1,400.3 L 511.1,412.3 M 511.1,400.3 L 499.1,412.3" stroke="#9C27B0" stroke-width="2" opacity="0.7"/>
<path d="M 320.0,423.4 L 332.0,435.4 M 332.0,423.4 L 320.0,435.4" stroke="#9C27B0" stroke-width="2" opacity="0.7"/>
<path d="M 730.3,249.9 L 742.3,261.9 M 742.3,249.9 L 730.3,261.9" stroke="#9C27B0" stroke-width="2" opacity="0.7"/>
<path d="M 434.5,366.1 L 446.5,378.1 M 446.5,366.1 L 434.5,378.1" stroke="#9C27B0" stroke-width="2" opacity="0.7"/>
<path d="M 290.6,375.3 L 302.6,387.3 M 302.6,375.3 L 290.6,387.3" stroke="#9C27B0" stroke-width="2" opacity="0.7"/>
<path d="M 437.8,359.0 L 449.8,371.0 M 449.8,359.0 L 437.8,371.0" stroke="#9C27B0" stroke-width="2" opacity="0.7"/>
<path d="M 472.3,399.2 L 484.3,411.2 M 484.3,399.2 L 472.3,411.2" stroke="#9C27B0" stroke-width="2" opacity="0.7"/>
<path d="M 361.1,418.3 L 373.1,430.3 M 373.1,418.3 L 361.1,430.3" stroke="#9C27B0" stroke-width="2" opacity="0.7"/>
<path d="M 730.7,321.1 L 742.7,333.1 M 742.7,321.1 L 730.7,333.1" stroke="#9C27B0" stroke-width="2" opacity="0.7"/>
<path d="M 509.4,343.0 L 521.4,355.0 M 521.4,343.0 L 509.4,355.0" stroke="#9C27B0" stroke-width="2" opacity="0.7"/>
<path d="M 506.1,328.5 L 518.1,340.5 M 518.1,328.5 L 506.1,340.5" stroke="#9C27B0" stroke-width="2" opacity="0.7"/>
<path d="M 296.4,380.4 L 308.4,392.4 M 308.4,380.4 L 296.4,392.4" stroke="#9C27B0" stroke-width="2" opacity="0.7"/>
<path d="M 357.0,379.5 L 369.0,391.5 M 369.0,379.5 L 357.0,391.5" stroke="#9C27B0" stroke-width="2" opacity="0.7"/>
<path d="M 423.1,405.2 L 435.1,417.2 M 435.1,405.2 L 423.1,417.2" stroke="#9C27B0" stroke-width="2" opacity="0.7"/>
<path d="M 510.9,335.2 L 522.9,347.2 M 522.9,335.2 L 510.9,347.2" stroke="#9C27B0" stroke-width="2" opacity="0.7"/>
<path d="M 586.4,328.4 L 598.4,340.4 M 598.4,328.4 L 586.4,340.4" stroke="#9C27B0" stroke-width="2" opacity="0.7"/>
<path d="M 283.6,410.9 L 295.6,422.9 M 295.6,410.9 L 283.6,422.9" stroke="#9C27B0" stroke-width="2" opacity="0.7"/>
<path d="M 610.0,353.1 L 622.0,365.1 M 622.0,353.1 L 610.0,365.1" stroke="#9C27B0" stroke-width="2" opacity="0.7"/>
<path d="M 180.9,418.2 L 192.9,430.2 M 192.9,418.2 L 180.9,430.2" stroke="#9C27B0" stroke-width="2" opacity="0.7"/>
<path d="M 576.5,327.0 L 588.5,339.0 M 588.5,327.0 L 576.5,339.0" stroke="#9C27B0" stroke-width="2" opacity="0.7"/>
<path d="M 353.6,399.1 L 365.6,411.1 M 365.6,399.1 L 353.6,411.1" stroke="#9C27B0" stroke-width="2" opacity="0.7"/>
<path d="M 548.9,299.9 L 560.9,311.9 M 560.9,299.9 L 548.9,311.9" stroke="#9C27B0" stroke-width="2" opacity="0.7"/>
<path d="M 202.9,429.2 L 214.9,441.2 M 214.9,429.2 L 202.9,441.2" stroke="#9C27B0" stroke-width="2" opacity="0.7"/>
<path d="M 218.9,394.8 L 230.9,406.8 M 230.9,394.8 L 218.9,406.8" stroke="#9C27B0" stroke-width="2" opacity="0.7"/>
<path d="M 572.5,301.0 L 584.5,313.0 M 584.5,301.0 L 572.5,313.0" stroke="#9C27B0" stroke-width="2" opacity="0.7"/>
<path d="M 207.6,410.1 L 219.6,422.1 M 219.6,410.1 L 207.6,422.1" stroke="#9C27B0" stroke-width="2" opacity="0.7"/>
<path d="M 357.0,381.6 L 369.0,393.6 M 369.0,381.6 L 357.0,393.6" stroke="#9C27B0" stroke-width="2" opacity="0.7"/>
<path d="M 535.4,397.2 L 547.4,409.2 M 547.4,397.2 L 535.4,409.2" stroke="#9C27B0" stroke-width="2" opacity="0.7"/>
<path d="M 730.3,252.9 L 742.3,264.9 M 742.3,252.9 L 730.3,264.9" stroke="#9C27B0" stroke-width="2" opacity="0.7"/>
<path d="M 333.5,365.1 L 345.5,377.1 M 345.5,365.1 L 333.5,377.1" stroke="#9C27B0" stroke-width="2" opacity="0.7"/>
<path d="M 179.3,411.8 L 191.3,423.8 M 191.3,411.8 L 179.3,423.8" stroke="#9C27B0" stroke-width="2" opacity="0.7"/>
<path d="M 511.9,403.0 L 523.9,415.0 M 523.9,403.0 L 511.9,415.0" stroke="#9C27B0" stroke-width="2" opacity="0.7"/>
<path d="M 138.3,394.7 L 150.3,406.7 M 150.3,394.7 L 138.3,406.7" stroke="#9C27B0" stroke-width="2" opacity="0.7"/>
<path d="M 423.1,407.6 L 435.1,419.6 M 435.1,407.6 L 423.1,419.6" stroke="#9C27B0" stroke-width="2" opacity="0.7"/>
<path d="M 511.8,388.4 L 523.8,400.4 M 523.8,388.4 L 511.8,400.4" stroke="#9C27B0" stroke-width="2" opacity="0.7"/>
<path d="M 323.3,386.8 L 335.3,398.8 M 335.3,386.8 L 323.3,398.8" stroke="#9C27B0" stroke-width="2" opacity="0.7"/>
<path d="M 610.0,376.5 L 622.0,388.5 M 622.0,376.5 L 610.0,388.5" stroke="#9C27B0" stroke-width="2" opacity="0.7"/>
<path d="M 572.5,336.2 L 584.5,348.2 M 584.5,336.2 L 572.5,348.2" stroke="#9C27B0" stroke-width="2" opacity="0.7"/>
<path d="M 256.8,412.7 L 268.8,424.7 M 268.8,412.7 L 256.8,424.7" stroke="#9C27B0" stroke-width="2" opacity="0.7"/>
<path d="M 613.7,356.0 L 625.7,368.0 M 625.7,356.0 L 613.7,368.0" stroke="#9C27B0" stroke-width="2" opacity="0.7"/>
<path d="M 616.2,396.4 L 628.2,408.4 M 628.2,396.4 L 616.2,408.4" stroke="#9C27B0" stroke-width="2" opacity="0.7"/>
<path d="M 356.7,417.8 L 368.7,429.8 M 368.7,417.8 L 356.7,429.8" stroke="#9C27B0" stroke-width="2" opacity="0.7"/>
<path d="M 361.1,392.9 L 373.1,404.9 M 373.1,392.9 L 361.1,404.9" stroke="#9C27B0" stroke-width="2" opacity="0.7"/>
<path d="M 394.9,395.5 L 406.9,407.5 M 406.9,395.5 L 394.9,407.5" stroke="#9C27B0" stroke-width="2" opacity="0.7"/>
<path d="M 141.2,432.6 L 153.2,444.6 M 153.2,432.6 L 141.2,444.6" stroke="#9C27B0" stroke-width="2" opacity="0.7"/>
<path d="M 399.3,378.3 L 411.3,390.3 M 411.3,378.3 L 399.3,390.3" stroke="#9C27B0" stroke-width="2" opacity="0.7"/>
<path d="M 434.5,350.3 L 446.5,362.3 M 446.5,350.3 L 434.5,362.3" stroke="#9C27B0" stroke-width="2" opacity="0.7"/>
<path d="M 353.6,398.2 L 365.6,410.2 M 365.6,398.2 L 353.6,410.2" stroke="#9C27B0" stroke-width="2" opacity="0.7"/>
<path d="M 393.8,333.7 L 405.8,345.7 M 405.8,333.7 L 393.8,345.7" stroke="#9C27B0" stroke-width="2" opacity="0.7"/>
<path d="M 532.9,369.7 L 544.9,381.7 M 544.9,369.7 L 532.9,381.7" stroke="#9C27B0" stroke-width="2" opacity="0.7"/>
<path d="M 537.7,264.0 L 549.7,276.0 M 549.7,264.0 L 537.7,276.0" stroke="#9C27B0" stroke-width="2" opacity="0.7"/>
<path d="M 410.6,294.0 L 422.6,306.0 M 422.6,294.0 L 410.6,306.0" stroke="#9C27B0" stroke-width="2" opacity="0.7"/>
<path d="M 457.9,402.3 L 469.9,414.3 M 469.9,402.3 L 457.9,414.3" stroke="#9C27B0" stroke-width="2" opacity="0.7"/>
<path d="M 394.9,380.1 L 406.9,392.1 M 406.9,380.1 L 394.9,392.1" stroke="#9C27B0" stroke-width="2" opacity="0.7"/>
<path d="M 472.3,342.0 L 484.3,354.0 M 484.3,342.0 L 472.3,354.0" stroke="#9C27B0" stroke-width="2" opacity="0.7"/>
<path d="M 394.8,400.8 L 406.8,412.8 M 406.8,400.8 L 394.8,412.8" stroke="#9C27B0" stroke-width="2" opacity="0.7"/>
<path d="M 400.6,311.2 L 412.6,323.2 M 412.6,311.2 L 400.6,323.2" stroke="#9C27B0" stroke-width="2" opacity="0.7"/>
<path d="M 575.6,359.1 L 587.6,371.1 M 587.6,359.1 L 575.6,371.1" stroke="#9C27B0" stroke-width="2" opacity="0.7"/>
<path d="M 730.3,246.7 L 742.3,258.7 M 742.3,246.7 L 730.3,258.7" stroke="#9C27B0" stroke-width="2" opacity="0.7"/>
<path d="M 398.2,354.6 L 410.2,366.6 M 410.2,354.6 L 398.2,366.6" stroke="#9C27B0" stroke-width="2" opacity="0.7"/>
<path d="M 280.3,424.5 L 292.3,436.5 M 292.3,424.5 L 280.3,436.5" stroke="#9C27B0" stroke-width="2" opacity="0.7"/>
<path d="M 515.2,321.9 L 527.2,333.9 M 527.2,321.9 L 515.2,333.9" stroke="#9C27B0" stroke-width="2" opacity="0.7"/>
<path d="M 511.8,362.7 L 523.8,374.7 M 523.8,362.7 L 511.8,374.7" stroke="#9C27B0" stroke-width="2" opacity="0.7"/>
<path d="M 217.9,386.1 L 229.9,398.1 M 229.9,386.1 L 217.9,398.1" stroke="#9C27B0" stroke-width="2" opacity="0.7"/>
<path d="M 495.8,414.0 L 507.8,426.0 M 507.8,414.0 L 495.8,426.0" stroke="#9C27B0" stroke-width="2" opacity="0.7"/>
<path d="M 649.9,263.2 L 661.9,275.2 M 661.9,263.2 L 649.9,275.2" stroke="#9C27B0" stroke-width="2" opacity="0.7"/>
<path d="M 360.1,378.5 L 372.1,390.5 M 372.1,378.5 L 360.1,390.5" stroke="#9C27B0" stroke-width="2" opacity="0.7"/>
<path d="M 616.1,386.6 L 628.1,398.6 M 628.1,386.6 L 616.1,398.6" stroke="#9C27B0" stroke-width="2" opacity="0.7"/>
<path d="M 428.7,323.7 L 440.7,335.7 M 440.7,323.7 L 428.7,335.7" stroke="#9C27B0" stroke-width="2" opacity="0.7"/>
<path d="M 615.1,260.6 L 627.1,272.6 M 627.1,260.6 L 615.1,272.6" stroke="#9C27B0" stroke-width="2" opacity="0.7"/>
<path d="M 545.7,288.9 L 557.7,300.9 M 557.7,288.9 L 545.7,300.9" stroke="#9C27B0" stroke-width="2" opacity="0.7"/>
<path d="M 428.3,369.4 L 440.3,381.4 M 440.3,369.4 L 428.3,381.4" stroke="#9C27B0" stroke-width="2" opacity="0.7"/>
<path d="M 626.4,341.4 L 638.4,353.4 M 638.4,341.4 L 626.4,353.4" stroke="#9C27B0" stroke-width="2" opacity="0.7"/>
<path d="M 356.7,418.6 L 368.7,430.6 M 368.7,418.6 L 356.7,430.6" stroke="#9C27B0" stroke-width="2" opacity="0.7"/>
<path d="M 410.9,338.9 L 422.9,350.9 M 422.9,338.9 L 410.9,350.9" stroke="#9C27B0" stroke-width="2" opacity="0.7"/>
<path d="M 212.8,373.8 L 224.8,385.8 M 224.8,373.8 L 212.8,385.8" stroke="#9C27B0" stroke-width="2" opacity="0.7"/>
<path d="M 652.9,261.2 L 664.9,273.2 M 664.9,261.2 L 652.9,273.2" stroke="#9C27B0" stroke-width="2" opacity="0.7"/>
<path d="M 393.8,331.7 L 405.8,343.7 M 405.8,331.7 L 393.8,343.7" stroke="#9C27B0" stroke-width="2" opacity="0.7"/>
<path d="M 586.8,362.4 L 598.8,374.4 M 598.8,362.4 L 586.8,374.4" stroke="#9C27B0" stroke-width="2" opacity="0.7"/>
<path d="M 410.9,329.1 L 422.9,341.1 M 422.9,329.1 L 410.9,341.1" stroke="#9C27B0" stroke-width="2" opacity="0.7"/>
<path d="M 383.5,361.5 L 395.5,373.5 M 395.5,361.5 L 383.5,373.5" stroke="#9C27B0" stroke-width="2" opacity="0.7"/>
<path d="M 245.5,430.1 L 257.5,442.1 M 257.5,430.1 L 245.5,442.1" stroke="#9C27B0" stroke-width="2" opacity="0.7"/>
<path d="M 575.6,326.5 L 587.6,338.5 M 587.6,326.5 L 575.6,338.5" stroke="#9C27B0" stroke-width="2" opacity="0.7"/>
<path d="M 653.2,334.2 L 665.2,346.2 M 665.2,334.2 L 653.2,346.2" stroke="#9C27B0" stroke-width="2" opacity="0.7"/>
<path d="M 468.2,324.2 L 480.2,336.2 M 480.2,324.2 L 468.2,336.2" stroke="#9C27B0" stroke-width="2" opacity="0.7"/>
<path d="M 400.6,344.0 L 412.6,356.0 M 412.6,344.0 L 400.6,356.0" stroke="#9C27B0" stroke-width="2" opacity="0.7"/>
<path d="M 434.4,393.7 L 446.4,405.7 M 446.4,393.7 L 434.4,405.7" stroke="#9C27B0" stroke-width="2" opacity="0.7"/>
<path d="M 179.3,409.3 L 191.3,421.3 M 191.3,409.3 L 179.3,421.3" stroke="#9C27B0" stroke-width="2" opacity="0.7"/>
<path d="M 176.1,430.4 L 188.1,442.4 M 188.1,430.4 L 176.1,442.4" stroke="#9C27B0" stroke-width="2" opacity="0.7"/>
<path d="M 434.5,341.1 L 446.5,353.1 M 446.5,341.1 L 434.5,353.1" stroke="#9C27B0" stroke-width="2" opacity="0.7"/>
<path d="M 371.4,382.1 L 383.4,394.1 M 383.4,382.1 L 371.4,394.1" stroke="#9C27B0" stroke-width="2" opacity="0.7"/>
<path d="M 532.9,357.3 L 544.9,369.3 M 544.9,357.3 L 532.9,369.3" stroke="#9C27B0" stroke-width="2" opacity="0.7"/>
<path d="M 545.7,364.5 L 557.7,376.5 M 557.7,364.5 L 545.7,376.5" stroke="#9C27B0" stroke-width="2" opacity="0.7"/>
<path d="M 317.5,328.8 L 329.5,340.8 M 329.5,328.8 L 317.5,340.8" stroke="#9C27B0" stroke-width="2" opacity="0.7"/>
<path d="M 322.2,379.1 L 334.2,391.1 M 334.2,379.1 L 322.2,391.1" stroke="#9C27B0" stroke-width="2" opacity="0.7"/>
<path d="M 318.8,359.2 L 330.8,371.2 M 330.8,359.2 L 318.8,371.2" stroke="#9C27B0" stroke-width="2" opacity="0.7"/>
<path d="M 549.0,291.0 L 561.0,303.0 M 561.0,291.0 L 549.0,303.0" stroke="#9C27B0" stroke-width="2" opacity="0.7"/>
<path d="M 511.8,345.0 L 523.8,357.0 M 523.8,345.0 L 511.8,357.0" stroke="#9C27B0" stroke-width="2" opacity="0.7"/>
<path d="M 614.8,200.0 L 626.8,212.0 M 626.8,200.0 L 614.8,212.0" stroke="#9C27B0" stroke-width="2" opacity="0.7"/>
<path d="M 691.1,334.9 L 703.1,346.9 M 703.1,334.9 L 691.1,346.9" stroke="#9C27B0" stroke-width="2" opacity="0.7"/>
<path d="M 626.4,292.1 L 638.4,304.1 M 638.4,292.1 L 626.4,304.1" stroke="#9C27B0" stroke-width="2" opacity="0.7"/>
<path d="M 178.4,391.6 L 190.4,403.6 M 190.4,391.6 L 178.4,403.6" stroke="#9C27B0" stroke-width="2" opacity="0.7"/>
<path d="M 400.6,391.3 L 412.6,403.3 M 412.6,391.3 L 400.6,403.3" stroke="#9C27B0" stroke-width="2" opacity="0.7"/>
<path d="M 180.8,418.2 L 192.8,430.2 M 192.8,418.2 L 180.8,430.2" stroke="#9C27B0" stroke-width="2" opacity="0.7"/>
<path d="M 256.8,407.8 L 268.8,419.8 M 268.8,407.8 L 256.8,419.8" stroke="#9C27B0" stroke-width="2" opacity="0.7"/>
<path d="M 538.6,314.7 L 550.6,326.7 M 550.6,314.7 L 538.6,326.7" stroke="#9C27B0" stroke-width="2" opacity="0.7"/>
<path d="M 433.0,43.5 L 445.0,55.5 M 445.0,43.5 L 433.0,55.5" stroke="#9C27B0" stroke-width="2" opacity="0.7"/>
<path d="M 649.6,297.9 L 661.6,309.9 M 661.6,297.9 L 649.6,309.9" stroke="#9C27B0" stroke-width="2" opacity="0.7"/>
<path d="M 418.4,346.7 L 430.4,358.7 M 430.4,346.7 L 418.4,358.7" stroke="#9C27B0" stroke-width="2" opacity="0.7"/>
<path d="M 472.3,354.1 L 484.3,366.1 M 484.3,354.1 L 472.3,366.1" stroke="#9C27B0" stroke-width="2" opacity="0.7"/>
<path d="M 333.5,375.7 L 345.5,387.7 M 345.5,375.7 L 333.5,387.7" stroke="#9C27B0" stroke-width="2" opacity="0.7"/>
<path d="M 586.8,289.6 L 598.8,301.6 M 598.8,289.6 L 586.8,301.6" stroke="#9C27B0" stroke-width="2" opacity="0.7"/>
<path d="M 329.9,350.4 L 341.9,362.4 M 341.9,350.4 L 329.9,362.4" stroke="#9C27B0" stroke-width="2" opacity="0.7"/>
<path d="M 333.5,383.2 L 345.5,395.2 M 345.5,383.2 L 333.5,395.2" stroke="#9C27B0" stroke-width="2" opacity="0.7"/>
<path d="M 256.8,403.0 L 268.8,415.0 M 268.8,403.0 L 256.8,415.0" stroke="#9C27B0" stroke-width="2" opacity="0.7"/>
<path d="M 213.2,370.8 L 225.2,382.8 M 225.2,370.8 L 213.2,382.8" stroke="#9C27B0" stroke-width="2" opacity="0.7"/>
<path d="M 333.5,377.1 L 345.5,389.1 M 345.5,377.1 L 333.5,389.1" stroke="#9C27B0" stroke-width="2" opacity="0.7"/>
<path d="M 252.4,381.3 L 264.4,393.3 M 264.4,381.3 L 252.4,393.3" stroke="#9C27B0" stroke-width="2" opacity="0.7"/>
<path d="M 461.0,414.1 L 473.0,426.1 M 473.0,414.1 L 461.0,426.1" stroke="#9C27B0" stroke-width="2" opacity="0.7"/>
<path d="M 431.2,364.1 L 443.2,376.1 M 443.2,364.1 L 431.2,376.1" stroke="#9C27B0" stroke-width="2" opacity="0.7"/>
<path d="M 179.4,421.6 L 191.4,433.6 M 191.4,421.6 L 179.4,433.6" stroke="#9C27B0" stroke-width="2" opacity="0.7"/>
<path d="M 218.9,400.0 L 230.9,412.0 M 230.9,400.0 L 218.9,412.0" stroke="#9C27B0" stroke-width="2" opacity="0.7"/>
<path d="M 282.7,343.3 L 294.7,355.3 M 294.7,343.3 L 282.7,355.3" stroke="#9C27B0" stroke-width="2" opacity="0.7"/>
<path d="M 179.3,422.8 L 191.3,434.8 M 191.3,422.8 L 179.3,434.8" stroke="#9C27B0" stroke-width="2" opacity="0.7"/>
<path d="M 394.5,387.3 L 406.5,399.3 M 406.5,387.3 L 394.5,399.3" stroke="#9C27B0" stroke-width="2" opacity="0.7"/>
<path d="M 653.2,271.1 L 665.2,283.1 M 665.2,271.1 L 653.2,283.1" stroke="#9C27B0" stroke-width="2" opacity="0.7"/>
<path d="M 285.1,409.3 L 297.1,421.3 M 297.1,409.3 L 285.1,421.3" stroke="#9C27B0" stroke-width="2" opacity="0.7"/>
<path d="M 535.4,371.1 L 547.4,383.1 M 547.4,371.1 L 535.4,383.1" stroke="#9C27B0" stroke-width="2" opacity="0.7"/>
<path d="M 475.2,352.0 L 487.2,364.0 M 487.2,352.0 L 475.2,364.0" stroke="#9C27B0" stroke-width="2" opacity="0.7"/>
<path d="M 468.2,366.4 L 480.2,378.4 M 480.2,366.4 L 468.2,378.4" stroke="#9C27B0" stroke-width="2" opacity="0.7"/>
<path d="M 218.9,390.8 L 230.9,402.8 M 230.9,390.8 L 218.9,402.8" stroke="#9C27B0" stroke-width="2" opacity="0.7"/>
<path d="M 245.5,422.9 L 257.5,434.9 M 257.5,422.9 L 245.5,434.9" stroke="#9C27B0" stroke-width="2" opacity="0.7"/>
<path d="M 586.4,238.2 L 598.4,250.2 M 598.4,238.2 L 586.4,250.2" stroke="#9C27B0" stroke-width="2" opacity="0.7"/>
<path d="M 285.2,424.5 L 297.2,436.5 M 297.2,424.5 L 285.2,436.5" stroke="#9C27B0" stroke-width="2" opacity="0.7"/>
<path d="M 217.9,359.2 L 229.9,371.2 M 229.9,359.2 L 217.9,371.2" stroke="#9C27B0" stroke-width="2" opacity="0.7"/>
<path d="M 290.6,393.3 L 302.6,405.3 M 302.6,393.3 L 290.6,405.3" stroke="#9C27B0" stroke-width="2" opacity="0.7"/>
<path d="M 400.7,372.7 L 412.7,384.7 M 412.7,372.7 L 400.7,384.7" stroke="#9C27B0" stroke-width="2" opacity="0.7"/>
<path d="M 538.8,339.4 L 550.8,351.4 M 550.8,339.4 L 538.8,351.4" stroke="#9C27B0" stroke-width="2" opacity="0.7"/>
<path d="M 295.4,375.9 L 307.4,387.9 M 307.4,375.9 L 295.4,387.9" stroke="#9C27B0" stroke-width="2" opacity="0.7"/>
<path d="M 458.0,410.6 L 470.0,422.6 M 470.0,410.6 L 458.0,422.6" stroke="#9C27B0" stroke-width="2" opacity="0.7"/>
<path d="M 509.4,312.1 L 521.4,324.1 M 521.4,312.1 L 509.4,324.1" stroke="#9C27B0" stroke-width="2" opacity="0.7"/>
<path d="M 168.1,431.1 L 180.1,443.1 M 180.1,431.1 L 168.1,443.1" stroke="#9C27B0" stroke-width="2" opacity="0.7"/>
<path d="M 437.8,313.9 L 449.8,325.9 M 449.8,313.9 L 437.8,325.9" stroke="#9C27B0" stroke-width="2" opacity="0.7"/>
<path d="M 690.7,351.6 L 702.7,363.6 M 702.7,351.6 L 690.7,363.6" stroke="#9C27B0" stroke-width="2" opacity="0.7"/>
<path d="M 279.3,376.4 L 291.3,388.4 M 291.3,376.4 L 279.3,388.4" stroke="#9C27B0" stroke-width="2" opacity="0.7"/>
<path d="M 218.9,394.9 L 230.9,406.9 M 230.9,394.9 L 218.9,406.9" stroke="#9C27B0" stroke-width="2" opacity="0.7"/>
<path d="M 471.3,315.4 L 483.3,327.4 M 483.3,315.4 L 471.3,327.4" stroke="#9C27B0" stroke-width="2" opacity="0.7"/>
<path d="M 515.2,366.2 L 527.2,378.2 M 527.2,366.2 L 515.2,378.2" stroke="#9C27B0" stroke-width="2" opacity="0.7"/>
<path d="M 177.9,366.2 L 189.9,378.2 M 189.9,366.2 L 177.9,378.2" stroke="#9C27B0" stroke-width="2" opacity="0.7"/>
<path d="M 296.4,410.9 L 308.4,422.9 M 308.4,410.9 L 296.4,422.9" stroke="#9C27B0" stroke-width="2" opacity="0.7"/>
<path d="M 475.6,349.7 L 487.6,361.7 M 487.6,349.7 L 475.6,361.7" stroke="#9C27B0" stroke-width="2" opacity="0.7"/>
<path d="M 472.3,332.8 L 484.3,344.8 M 484.3,332.8 L 472.3,344.8" stroke="#9C27B0" stroke-width="2" opacity="0.7"/>
<path d="M 509.4,358.6 L 521.4,370.6 M 521.4,358.6 L 509.4,370.6" stroke="#9C27B0" stroke-width="2" opacity="0.7"/>
<path d="M 318.9,411.7 L 330.9,423.7 M 330.9,411.7 L 318.9,423.7" stroke="#9C27B0" stroke-width="2" opacity="0.7"/>
<path d="M 515.2,329.6 L 527.2,341.6 M 527.2,329.6 L 515.2,341.6" stroke="#9C27B0" stroke-width="2" opacity="0.7"/>
<path d="M 471.3,376.6 L 483.3,388.6 M 483.3,376.6 L 471.3,388.6" stroke="#9C27B0" stroke-width="2" opacity="0.7"/>
<path d="M 613.7,365.0 L 625.7,377.0 M 625.7,365.0 L 613.7,377.0" stroke="#9C27B0" stroke-width="2" opacity="0.7"/>
<path d="M 280.4,415.9 L 292.4,427.9 M 292.4,415.9 L 280.4,427.9" stroke="#9C27B0" stroke-width="2" opacity="0.7"/>
<path d="M 461.0,412.0 L 473.0,424.0 M 473.0,412.0 L 461.0,424.0" stroke="#9C27B0" stroke-width="2" opacity="0.7"/>
<path d="M 360.1,337.1 L 372.1,349.1 M 372.1,337.1 L 360.1,349.1" stroke="#9C27B0" stroke-width="2" opacity="0.7"/>
<path d="M 371.4,329.8 L 383.4,341.8 M 383.4,329.8 L 371.4,341.8" stroke="#9C27B0" stroke-width="2" opacity="0.7"/>
<path d="M 215.6,415.8 L 227.6,427.8 M 227.6,415.8 L 215.6,427.8" stroke="#9C27B0" stroke-width="2" opacity="0.7"/>
<path d="M 434.4,343.5 L 446.4,355.5 M 446.4,343.5 L 434.4,355.5" stroke="#9C27B0" stroke-width="2" opacity="0.7"/>
<path d="M 653.2,289.2 L 665.2,301.2 M 665.2,289.2 L 653.2,301.2" stroke="#9C27B0" stroke-width="2" opacity="0.7"/>
<path d="M 576.6,403.3 L 588.6,415.3 M 588.6,403.3 L 576.6,415.3" stroke="#9C27B0" stroke-width="2" opacity="0.7"/>
<path d="M 394.8,396.8 L 406.8,408.8 M 406.8,396.8 L 394.8,408.8" stroke="#9C27B0" stroke-width="2" opacity="0.7"/>
<path d="M 168.1,430.2 L 180.1,442.2 M 180.1,430.2 L 168.1,442.2" stroke="#9C27B0" stroke-width="2" opacity="0.7"/>
<path d="M 282.7,383.1 L 294.7,395.1 M 294.7,383.1 L 282.7,395.1" stroke="#9C27B0" stroke-width="2" opacity="0.7"/>
<path d="M 509.4,295.2 L 521.4,307.2 M 521.4,295.2 L 509.4,307.2" stroke="#9C27B0" stroke-width="2" opacity="0.7"/>
<path d="M 371.4,362.4 L 383.4,374.4 M 383.4,362.4 L 371.4,374.4" stroke="#9C27B0" stroke-width="2" opacity="0.7"/>
<path d="M 549.0,341.4 L 561.0,353.4 M 561.0,341.4 L 549.0,353.4" stroke="#9C27B0" stroke-width="2" opacity="0.7"/>
<path d="M 176.1,429.4 L 188.1,441.4 M 188.1,429.4 L 176.1,441.4" stroke="#9C27B0" stroke-width="2" opacity="0.7"/>
<path d="M 498.1,359.4 L 510.1,371.4 M 510.1,359.4 L 498.1,371.4" stroke="#9C27B0" stroke-width="2" opacity="0.7"/>
<path d="M 283.6,417.0 L 295.6,429.0 M 295.6,417.0 L 283.6,429.0" stroke="#9C27B0" stroke-width="2" opacity="0.7"/>
<path d="M 497.7,341.2 L 509.7,353.2 M 509.7,341.2 L 497.7,353.2" stroke="#9C27B0" stroke-width="2" opacity="0.7"/>
<path d="M 293.5,342.8 L 305.5,354.8 M 305.5,342.8 L 293.5,354.8" stroke="#9C27B0" stroke-width="2" opacity="0.7"/>
<path d="M 505.7,168.0 L 517.7,180.0 M 517.7,168.0 L 505.7,180.0" stroke="#9C27B0" stroke-width="2" opacity="0.7"/>
<path d="M 626.1,344.8 L 638.1,356.8 M 638.1,344.8 L 626.1,356.8" stroke="#9C27B0" stroke-width="2" opacity="0.7"/>
<path d="M 514.9,377.9 L 526.9,389.9 M 526.9,377.9 L 514.9,389.9" stroke="#9C27B0" stroke-width="2" opacity="0.7"/>
<path d="M 397.8,252.4 L 409.8,264.4 M 409.8,252.4 L 397.8,264.4" stroke="#9C27B0" stroke-width="2" opacity="0.7"/>
<path d="M 499.1,245.6 L 511.1,257.6 M 511.1,245.6 L 499.1,257.6" stroke="#9C27B0" stroke-width="2" opacity="0.7"/>
<path d="M 242.4,402.3 L 254.4,414.3 M 254.4,402.3 L 242.4,414.3" stroke="#9C27B0" stroke-width="2" opacity="0.7"/>
<path d="M 418.4,405.0 L 430.4,417.0 M 430.4,405.0 L 418.4,417.0" stroke="#9C27B0" stroke-width="2" opacity="0.7"/>
<path d="M 537.3,86.5 L 549.3,98.5 M 549.3,86.5 L 537.3,98.5" stroke="#9C27B0" stroke-width="2" opacity="0.7"/>
<path d="M 314.1,383.8 L 326.1,395.8 M 326.1,383.8 L 314.1,395.8" stroke="#9C27B0" stroke-width="2" opacity="0.7"/>
<path d="M 256.8,404.1 L 268.8,416.1 M 268.8,404.1 L 256.8,416.1" stroke="#9C27B0" stroke-width="2" opacity="0.7"/>
<path d="M 396.3,398.3 L 408.3,410.3 M 408.3,398.3 L 396.3,410.3" stroke="#9C27B0" stroke-width="2" opacity="0.7"/>
<path d="M 255.4,379.4 L 267.4,391.4 M 267.4,379.4 L 255.4,391.4" stroke="#9C27B0" stroke-width="2" opacity="0.7"/>
<path d="M 391.5,380.9 L 403.5,392.9 M 403.5,380.9 L 391.5,392.9" stroke="#9C27B0" stroke-width="2" opacity="0.7"/>
<path d="M 293.9,336.9 L 305.9,348.9 M 305.9,336.9 L 293.9,348.9" stroke="#9C27B0" stroke-width="2" opacity="0.7"/>
<path d="M 330.2,381.7 L 342.2,393.7 M 342.2,381.7 L 330.2,393.7" stroke="#9C27B0" stroke-width="2" opacity="0.7"/>
<path d="M 616.1,387.7 L 628.1,399.7 M 628.1,387.7 L 616.1,399.7" stroke="#9C27B0" stroke-width="2" opacity="0.7"/>
<path d="M 322.2,365.0 L 334.2,377.0 M 334.2,365.0 L 322.2,377.0" stroke="#9C27B0" stroke-width="2" opacity="0.7"/>
<path d="M 399.3,348.1 L 411.3,360.1 M 411.3,348.1 L 399.3,360.1" stroke="#9C27B0" stroke-width="2" opacity="0.7"/>
<path d="M 437.8,366.9 L 449.8,378.9 M 449.8,366.9 L 437.8,378.9" stroke="#9C27B0" stroke-width="2" opacity="0.7"/>
<path d="M 283.6,419.6 L 295.6,431.6 M 295.6,419.6 L 283.6,431.6" stroke="#9C27B0" stroke-width="2" opacity="0.7"/>
<path d="M 548.6,362.5 L 560.6,374.5 M 560.6,362.5 L 548.6,374.5" stroke="#9C27B0" stroke-width="2" opacity="0.7"/>
<path d="M 296.4,393.7 L 308.4,405.7 M 308.4,393.7 L 296.4,405.7" stroke="#9C27B0" stroke-width="2" opacity="0.7"/>
<path d="M 500.6,327.4 L 512.6,339.4 M 512.6,327.4 L 500.6,339.4" stroke="#9C27B0" stroke-width="2" opacity="0.7"/>
<path d="M 215.6,423.9 L 227.6,435.9 M 227.6,423.9 L 215.6,435.9" stroke="#9C27B0" stroke-width="2" opacity="0.7"/>
<path d="M 691.1,357.0 L 703.1,369.0 M 703.1,357.0 L 691.1,369.0" stroke="#9C27B0" stroke-width="2" opacity="0.7"/>
<path d="M 323.2,391.3 L 335.2,403.3 M 335.2,391.3 L 323.2,403.3" stroke="#9C27B0" stroke-width="2" opacity="0.7"/>
<path d="M 103.4,410.8 L 115.4,422.8 M 115.4,410.8 L 103.4,422.8" stroke="#9C27B0" stroke-width="2" opacity="0.7"/>
<path d="M 613.3,329.6 L 625.3,341.6 M 625.3,329.6 L 613.3,341.6" stroke="#9C27B0" stroke-width="2" opacity="0.7"/>
<path d="M 293.9,366.0 L 305.9,378.0 M 305.9,366.0 L 293.9,378.0" stroke="#9C27B0" stroke-width="2" opacity="0.7"/>
<path d="M 295.0,374.9 L 307.0,386.9 M 307.0,374.9 L 295.0,386.9" stroke="#9C27B0" stroke-width="2" opacity="0.7"/>
<path d="M 383.5,407.8 L 395.5,419.8 M 395.5,407.8 L 383.5,419.8" stroke="#9C27B0" stroke-width="2" opacity="0.7"/>
<path d="M 138.2,422.3 L 150.2,434.3 M 150.2,422.3 L 138.2,434.3" stroke="#9C27B0" stroke-width="2" opacity="0.7"/>
<path d="M 141.2,430.6 L 153.2,442.6 M 153.2,430.6 L 141.2,442.6" stroke="#9C27B0" stroke-width="2" opacity="0.7"/>
<path d="M 396.3,366.2 L 408.3,378.2 M 408.3,366.2 L 396.3,378.2" stroke="#9C27B0" stroke-width="2" opacity="0.7"/>
<path d="M 616.1,390.7 L 628.1,402.7 M 628.1,390.7 L 616.1,402.7" stroke="#9C27B0" stroke-width="2" opacity="0.7"/>
<path d="M 361.1,400.0 L 373.1,412.0 M 373.1,400.0 L 361.1,412.0" stroke="#9C27B0" stroke-width="2" opacity="0.7"/>
<path d="M 626.4,260.1 L 638.4,272.1 M 638.4,260.1 L 626.4,272.1" stroke="#9C27B0" stroke-width="2" opacity="0.7"/>
<path d="M 475.2,201.8 L 487.2,213.8 M 487.2,201.8 L 475.2,213.8" stroke="#9C27B0" stroke-width="2" opacity="0.7"/>
<path d="M 475.2,372.4 L 487.2,384.4 M 487.2,372.4 L 475.2,384.4" stroke="#9C27B0" stroke-width="2" opacity="0.7"/>
<path d="M 500.6,411.2 L 512.6,423.2 M 512.6,411.2 L 500.6,423.2" stroke="#9C27B0" stroke-width="2" opacity="0.7"/>
<path d="M 499.1,342.5 L 511.1,354.5 M 511.1,342.5 L 499.1,354.5" stroke="#9C27B0" stroke-width="2" opacity="0.7"/>
<path d="M 495.8,402.2 L 507.8,414.2 M 507.8,402.2 L 495.8,414.2" stroke="#9C27B0" stroke-width="2" opacity="0.7"/>
<path d="M 433.4,357.3 L 445.4,369.3 M 445.4,357.3 L 433.4,369.3" stroke="#9C27B0" stroke-width="2" opacity="0.7"/>
<path d="M 98.6,428.5 L 110.6,440.5 M 110.6,428.5 L 98.6,440.5" stroke="#9C27B0" stroke-width="2" opacity="0.7"/>
<path d="M 510.9,377.8 L 522.9,389.8 M 522.9,377.8 L 510.9,389.8" stroke="#9C27B0" stroke-width="2" opacity="0.7"/>
<path d="M 499.1,316.2 L 511.1,328.2 M 511.1,316.2 L 499.1,328.2" stroke="#9C27B0" stroke-width="2" opacity="0.7"/>
<path d="M 434.1,333.1 L 446.1,345.1 M 446.1,333.1 L 434.1,345.1" stroke="#9C27B0" stroke-width="2" opacity="0.7"/>
<path d="M 252.4,362.7 L 264.4,374.7 M 264.4,362.7 L 252.4,374.7" stroke="#9C27B0" stroke-width="2" opacity="0.7"/>
<path d="M 361.1,421.1 L 373.1,433.1 M 373.1,421.1 L 361.1,433.1" stroke="#9C27B0" stroke-width="2" opacity="0.7"/>
<path d="M 613.7,354.8 L 625.7,366.8 M 625.7,354.8 L 613.7,366.8" stroke="#9C27B0" stroke-width="2" opacity="0.7"/>
<path d="M 103.4,386.0 L 115.4,398.0 M 115.4,386.0 L 103.4,398.0" stroke="#9C27B0" stroke-width="2" opacity="0.7"/>
<path d="M 386.5,398.8 L 398.5,410.8 M 398.5,398.8 L 386.5,410.8" stroke="#FF9800" stroke-width="2" opacity="0.7"/>
<path d="M 648.7,372.7 L 660.7,384.7 M 660.7,372.7 L 648.7,384.7" stroke="#4CAF50" stroke-width="2" opacity="0.7"/>
<path d="M 329.0,407.2 L 341.0,419.2 M 341.0,407.2 L 329.0,419.2" stroke="#4CAF50" stroke-width="2" opacity="0.7"/>
<path d="M 609.8,376.2 L 621.8,388.2 M 621.8,376.2 L 609.8,388.2" stroke="#4CAF50" stroke-width="2" opacity="0.7"/>
<path d="M 428.1,399.4 L 440.1,411.4 M 440.1,399.4 L 428.1,411.4" stroke="#4CAF50" stroke-width="2" opacity="0.7"/>
<path d="M 726.2,417.3 L 738.2,429.3 M 738.2,417.3 L 726.2,429.3" stroke="#4CAF50" stroke-width="2" opacity="0.7"/>
<path d="M 509.9,379.7 L 521.9,391.7 M 521.9,379.7 L 509.9,391.7" stroke="#4CAF50" stroke-width="2" opacity="0.7"/>
<path d="M 725.4,395.2 L 737.4,407.2 M 737.4,395.2 L 725.4,407.2" stroke="#4CAF50" stroke-width="2" opacity="0.7"/>
<path d="M 533.1,313.2 L 545.1,325.2 M 545.1,313.2 L 533.1,325.2" stroke="#4CAF50" stroke-width="2" opacity="0.7"/>
<path d="M 647.9,374.0 L 659.9,386.0 M 659.9,374.0 L 647.9,386.0" stroke="#4CAF50" stroke-width="2" opacity="0.7"/>
<path d="M 328.2,392.0 L 340.2,404.0 M 340.2,392.0 L 328.2,404.0" stroke="#4CAF50" stroke-width="2" opacity="0.7"/>
<path d="M 616.1,332.9 L 628.1,344.9 M 628.1,332.9 L 616.1,344.9" stroke="#2196F3" stroke-width="2" opacity="0.7"/>
<path d="M 497.2,375.3 L 509.2,387.3 M 509.2,375.3 L 497.2,387.3" stroke="#2196F3" stroke-width="2" opacity="0.7"/>
<path d="M 168.1,424.5 L 180.1,436.5 M 180.1,424.5 L 168.1,436.5" stroke="#2196F3" stroke-width="2" opacity="0.7"/>
<path d="M 304.2,363.5 L 316.2,375.5 M 316.2,363.5 L 304.2,375.5" stroke="#2196F3" stroke-width="2" opacity="0.7"/>
<path d="M 380.2,374.3 L 392.2,386.3 M 392.2,374.3 L 380.2,386.3" stroke="#2196F3" stroke-width="2" opacity="0.7"/>
<path d="M 245.5,420.8 L 257.5,432.8 M 257.5,420.8 L 245.5,432.8" stroke="#2196F3" stroke-width="2" opacity="0.7"/>
<path d="M 453.3,362.9 L 465.3,374.9 M 465.3,362.9 L 453.3,374.9" stroke="#2196F3" stroke-width="2" opacity="0.7"/>
<path d="M 179.3,406.0 L 191.3,418.0 M 191.3,406.0 L 179.3,418.0" stroke="#2196F3" stroke-width="2" opacity="0.7"/>
<path d="M 264.6,370.6 L 276.6,382.6 M 276.6,370.6 L 264.6,382.6" stroke="#2196F3" stroke-width="2" opacity="0.7"/>
<path d="M 392.9,370.7 L 404.9,382.7 M 404.9,370.7 L 392.9,382.7" stroke="#2196F3" stroke-width="2" opacity="0.7"/>
<path d="M 616.2,328.9 L 628.2,340.9 M 628.2,328.9 L 616.2,340.9" stroke="#2196F3" stroke-width="2" opacity="0.7"/>
<path d="M 472.3,370.5 L 484.3,382.5 M 484.3,370.5 L 472.3,382.5" stroke="#2196F3" stroke-width="2" opacity="0.7"/>
<path d="M 356.7,387.2 L 368.7,399.2 M 368.7,387.2 L 356.7,399.2" stroke="#2196F3" stroke-width="2" opacity="0.7"/>
<path d="M 519.7,337.8 L 531.7,349.8 M 531.7,337.8 L 519.7,349.8" stroke="#2196F3" stroke-width="2" opacity="0.7"/>
<path d="M 538.6,402.6 L 550.6,414.6 M 550.6,402.6 L 538.6,414.6" stroke="#2196F3" stroke-width="2" opacity="0.7"/>
<path d="M 179.3,404.6 L 191.3,416.6 M 191.3,404.6 L 179.3,416.6" stroke="#2196F3" stroke-width="2" opacity="0.7"/>
<path d="M 375.8,378.4 L 387.8,390.4 M 387.8,378.4 L 375.8,390.4" stroke="#2196F3" stroke-width="2" opacity="0.7"/>
<path d="M 352.8,388.4 L 364.8,400.4 M 364.8,388.4 L 352.8,400.4" stroke="#2196F3" stroke-width="2" opacity="0.7"/>
<path d="M 415.4,364.2 L 427.4,376.2 M 427.4,364.2 L 415.4,376.2" stroke="#2196F3" stroke-width="2" opacity="0.7"/>
<path d="M 414.9,313.6 L 426.9,325.6 M 426.9,313.6 L 414.9,325.6" stroke="#2196F3" stroke-width="2" opacity="0.7"/>
<path d="M 635.2,340.2 L 647.2,352.2 M 647.2,340.2 L 635.2,352.2" stroke="#2196F3" stroke-width="2" opacity="0.7"/>
<path d="M 141.2,432.8 L 153.2,444.8 M 153.2,432.8 L 141.2,444.8" stroke="#2196F3" stroke-width="2" opacity="0.7"/>
<path d="M 180.9,396.9 L 192.9,408.9 M 192.9,396.9 L 180.9,408.9" stroke="#2196F3" stroke-width="2" opacity="0.7"/>
<path d="M 103.4,425.5 L 115.4,437.5 M 115.4,425.5 L 103.4,437.5" stroke="#2196F3" stroke-width="2" opacity="0.7"/>
<path d="M 568.8,295.0 L 580.8,307.0 M 580.8,295.0 L 568.8,307.0" stroke="#2196F3" stroke-width="2" opacity="0.7"/>
<path d="M 595.6,353.6 L 607.6,365.6 M 607.6,353.6 L 595.6,365.6" stroke="#2196F3" stroke-width="2" opacity="0.7"/>
<path d="M 103.4,427.2 L 115.4,439.2 M 115.4,427.2 L 103.4,439.2" stroke="#2196F3" stroke-width="2" opacity="0.7"/>
<path d="M 245.5,422.0 L 257.5,434.0 M 257.5,422.0 L 245.5,434.0" stroke="#2196F3" stroke-width="2" opacity="0.7"/>
<path d="M 304.2,366.1 L 316.2,378.1 M 316.2,366.1 L 304.2,378.1" stroke="#2196F3" stroke-width="2" opacity="0.7"/>
<path d="M 199.4,368.7 L 211.4,380.7 M 211.4,368.7 L 199.4,380.7" stroke="#2196F3" stroke-width="2" opacity="0.7"/>
<path d="M 530.5,366.3 L 542.5,378.3 M 542.5,366.3 L 530.5,378.3" stroke="#2196F3" stroke-width="2" opacity="0.7"/>
<path d="M 394.8,358.3 L 406.8,370.3 M 406.8,358.3 L 394.8,370.3" stroke="#2196F3" stroke-width="2" opacity="0.7"/>
<path d="M 557.5,342.8 L 569.5,354.8 M 569.5,342.8 L 557.5,354.8" stroke="#2196F3" stroke-width="2" opacity="0.7"/>
<path d="M 472.3,404.7 L 484.3,416.7 M 484.3,404.7 L 472.3,416.7" stroke="#2196F3" stroke-width="2" opacity="0.7"/>
<path d="M 557.0,314.2 L 569.0,326.2 M 569.0,314.2 L 557.0,326.2" stroke="#2196F3" stroke-width="2" opacity="0.7"/>
<path d="M 457.6,350.9 L 469.6,362.9 M 469.6,350.9 L 457.6,362.9" stroke="#2196F3" stroke-width="2" opacity="0.7"/>
<path d="M 400.6,409.1 L 412.6,421.1 M 412.6,409.1 L 400.6,421.1" stroke="#2196F3" stroke-width="2" opacity="0.7"/>
<path d="M 296.4,377.7 L 308.4,389.7 M 308.4,377.7 L 296.4,389.7" stroke="#2196F3" stroke-width="2" opacity="0.7"/>
<path d="M 318.8,350.1 L 330.8,362.1 M 330.8,350.1 L 318.8,362.1" stroke="#2196F3" stroke-width="2" opacity="0.7"/>
<path d="M 530.9,360.9 L 542.9,372.9 M 542.9,360.9 L 530.9,372.9" stroke="#2196F3" stroke-width="2" opacity="0.7"/>
<path d="M 400.6,387.5 L 412.6,399.5 M 412.6,387.5 L 400.6,399.5" stroke="#2196F3" stroke-width="2" opacity="0.7"/>
<path d="M 275.9,322.7 L 287.9,334.7 M 287.9,322.7 L 275.9,334.7" stroke="#2196F3" stroke-width="2" opacity="0.7"/>
<path d="M 323.2,389.5 L 335.2,401.5 M 335.2,389.5 L 323.2,401.5" stroke="#2196F3" stroke-width="2" opacity="0.7"/>
<path d="M 283.6,420.0 L 295.6,432.0 M 295.6,420.0 L 283.6,432.0" stroke="#2196F3" stroke-width="2" opacity="0.7"/>
<path d="M 283.6,400.5 L 295.6,412.5 M 295.6,400.5 L 283.6,412.5" stroke="#2196F3" stroke-width="2" opacity="0.7"/>
<path d="M 315.5,378.5 L 327.5,390.5 M 327.5,378.5 L 315.5,390.5" stroke="#2196F3" stroke-width="2" opacity="0.7"/>
<path d="M 277.4,365.8 L 289.4,377.8 M 289.4,365.8 L 277.4,377.8" stroke="#2196F3" stroke-width="2" opacity="0.7"/>
<path d="M 499.1,304.2 L 511.1,316.2 M 511.1,304.2 L 499.1,316.2" stroke="#2196F3" stroke-width="2" opacity="0.7"/>
<path d="M 419.7,319.4 L 431.7,331.4 M 431.7,319.4 L 419.7,331.4" stroke="#2196F3" stroke-width="2" opacity="0.7"/>
<path d="M 490.9,302.6 L 502.9,314.6 M 502.9,302.6 L 490.9,314.6" stroke="#2196F3" stroke-width="2" opacity="0.7"/>
<path d="M 597.1,354.1 L 609.1,366.1 M 609.1,354.1 L 597.1,366.1" stroke="#2196F3" stroke-width="2" opacity="0.7"/>
<path d="M 423.2,363.2 L 435.2,375.2 M 435.2,363.2 L 423.2,375.2" stroke="#2196F3" stroke-width="2" opacity="0.7"/>
<path d="M 423.2,410.3 L 435.2,422.3 M 435.2,410.3 L 423.2,422.3" stroke="#2196F3" stroke-width="2" opacity="0.7"/>
<path d="M 275.9,383.7 L 287.9,395.7 M 287.9,383.7 L 275.9,395.7" stroke="#2196F3" stroke-width="2" opacity="0.7"/>
<path d="M 381.6,349.4 L 393.6,361.4 M 393.6,349.4 L 381.6,361.4" stroke="#2196F3" stroke-width="2" opacity="0.7"/>
<path d="M 383.5,405.4 L 395.5,417.4 M 395.5,405.4 L 383.5,417.4" stroke="#2196F3" stroke-width="2" opacity="0.7"/>
<path d="M 457.6,363.0 L 469.6,375.0 M 469.6,363.0 L 457.6,375.0" stroke="#2196F3" stroke-width="2" opacity="0.7"/>
<path d="M 596.6,268.8 L 608.6,280.8 M 608.6,268.8 L 596.6,280.8" stroke="#2196F3" stroke-width="2" opacity="0.7"/>
<path d="M 673.1,340.4 L 685.1,352.4 M 685.1,340.4 L 673.1,352.4" stroke="#2196F3" stroke-width="2" opacity="0.7"/>
<path d="M 218.9,392.4 L 230.9,404.4 M 230.9,392.4 L 218.9,404.4" stroke="#2196F3" stroke-width="2" opacity="0.7"/>
<path d="M 461.0,381.2 L 473.0,393.2 M 473.0,381.2 L 461.0,393.2" stroke="#2196F3" stroke-width="2" opacity="0.7"/>
<path d="M 256.8,409.2 L 268.8,421.2 M 268.8,409.2 L 256.8,421.2" stroke="#2196F3" stroke-width="2" opacity="0.7"/>
<path d="M 285.2,424.7 L 297.2,436.7 M 297.2,424.7 L 285.2,436.7" stroke="#2196F3" stroke-width="2" opacity="0.7"/>
<path d="M 318.9,357.1 L 330.9,369.1 M 330.9,357.1 L 318.9,369.1" stroke="#2196F3" stroke-width="2" opacity="0.7"/>
<path d="M 576.5,400.0 L 588.5,412.0 M 588.5,400.0 L 576.5,412.0" stroke="#2196F3" stroke-width="2" opacity="0.7"/>
<path d="M 279.3,415.2 L 291.3,427.2 M 291.3,415.2 L 279.3,427.2" stroke="#2196F3" stroke-width="2" opacity="0.7"/>
<path d="M 712.7,349.2 L 724.7,361.2 M 724.7,349.2 L 712.7,361.2" stroke="#2196F3" stroke-width="2" opacity="0.7"/>
<path d="M 168.1,425.7 L 180.1,437.7 M 180.1,425.7 L 168.1,437.7" stroke="#2196F3" stroke-width="2" opacity="0.7"/>
<path d="M 394.8,361.9 L 406.8,373.9 M 406.8,361.9 L 394.8,373.9" stroke="#2196F3" stroke-width="2" opacity="0.7"/>
<path d="M 635.2,245.0 L 647.2,257.0 M 647.2,245.0 L 635.2,257.0" stroke="#2196F3" stroke-width="2" opacity="0.7"/>
<path d="M 219.0,331.6 L 231.0,343.6 M 231.0,331.6 L 219.0,343.6" stroke="#2196F3" stroke-width="2" opacity="0.7"/>
<path d="M 538.8,365.7 L 550.8,377.7 M 550.8,365.7 L 538.8,377.7" stroke="#2196F3" stroke-width="2" opacity="0.7"/>
<path d="M 207.6,415.3 L 219.6,427.3 M 219.6,415.3 L 207.6,427.3" stroke="#2196F3" stroke-width="2" opacity="0.7"/>
<path d="M 237.8,386.7 L 249.8,398.7 M 249.8,386.7 L 237.8,398.7" stroke="#2196F3" stroke-width="2" opacity="0.7"/>
<path d="M 180.9,418.7 L 192.9,430.7 M 192.9,418.7 L 180.9,430.7" stroke="#2196F3" stroke-width="2" opacity="0.7"/>
<path d="M 461.0,410.3 L 473.0,422.3 M 473.0,410.3 L 461.0,422.3" stroke="#2196F3" stroke-width="2" opacity="0.7"/>
<path d="M 595.6,365.3 L 607.6,377.3 M 607.6,365.3 L 595.6,377.3" stroke="#2196F3" stroke-width="2" opacity="0.7"/>
<path d="M 315.5,370.4 L 327.5,382.4 M 327.5,370.4 L 315.5,382.4" stroke="#2196F3" stroke-width="2" opacity="0.7"/>
<path d="M 480.1,314.9 L 492.1,326.9 M 492.1,314.9 L 480.1,326.9" stroke="#2196F3" stroke-width="2" opacity="0.7"/>
<path d="M 419.7,327.9 L 431.7,339.9 M 431.7,327.9 L 419.7,339.9" stroke="#2196F3" stroke-width="2" opacity="0.7"/>
<path d="M 160.4,385.1 L 172.4,397.1 M 172.4,385.1 L 160.4,397.1" stroke="#2196F3" stroke-width="2" opacity="0.7"/>
<path d="M 712.6,337.2 L 724.6,349.2 M 724.6,337.2 L 712.6,349.2" stroke="#2196F3" stroke-width="2" opacity="0.7"/>
<path d="M 356.7,409.9 L 368.7,421.9 M 368.7,409.9 L 356.7,421.9" stroke="#2196F3" stroke-width="2" opacity="0.7"/>
<path d="M 141.2,432.8 L 153.2,444.8 M 153.2,432.8 L 141.2,444.8" stroke="#2196F3" stroke-width="2" opacity="0.7"/>
<path d="M 500.5,405.4 L 512.5,417.4 M 512.5,405.4 L 500.5,417.4" stroke="#2196F3" stroke-width="2" opacity="0.7"/>
<path d="M 511.8,348.0 L 523.8,360.0 M 523.8,348.0 L 511.8,360.0" stroke="#2196F3" stroke-width="2" opacity="0.7"/>
<path d="M 492.4,248.2 L 504.4,260.2 M 504.4,248.2 L 492.4,260.2" stroke="#2196F3" stroke-width="2" opacity="0.7"/>
<path d="M 296.4,392.1 L 308.4,404.1 M 308.4,392.1 L 296.4,404.1" stroke="#2196F3" stroke-width="2" opacity="0.7"/>
<path d="M 375.8,373.1 L 387.8,385.1 M 387.8,373.1 L 375.8,385.1" stroke="#2196F3" stroke-width="2" opacity="0.7"/>
<path d="M 568.8,311.8 L 580.8,323.8 M 580.8,311.8 L 568.8,323.8" stroke="#2196F3" stroke-width="2" opacity="0.7"/>
<path d="M 277.4,372.7 L 289.4,384.7 M 289.4,372.7 L 277.4,384.7" stroke="#2196F3" stroke-width="2" opacity="0.7"/>
<path d="M 285.1,424.6 L 297.1,436.6 M 297.1,424.6 L 285.1,436.6" stroke="#2196F3" stroke-width="2" opacity="0.7"/>
<path d="M 490.9,310.3 L 502.9,322.3 M 502.9,310.3 L 490.9,322.3" stroke="#2196F3" stroke-width="2" opacity="0.7"/>
<path d="M 434.4,387.5 L 446.4,399.5 M 446.4,387.5 L 434.4,399.5" stroke="#2196F3" stroke-width="2" opacity="0.7"/>
<path d="M 434.4,400.2 L 446.4,412.2 M 446.4,400.2 L 434.4,412.2" stroke="#2196F3" stroke-width="2" opacity="0.7"/>
<path d="M 576.5,342.0 L 588.5,354.0 M 588.5,342.0 L 576.5,354.0" stroke="#2196F3" stroke-width="2" opacity="0.7"/>
<path d="M 264.6,380.8 L 276.6,392.8 M 276.6,380.8 L 264.6,392.8" stroke="#2196F3" stroke-width="2" opacity="0.7"/>
<path d="M 361.1,416.6 L 373.1,428.6 M 373.1,416.6 L 361.1,428.6" stroke="#2196F3" stroke-width="2" opacity="0.7"/>
<path d="M 323.2,372.8 L 335.2,384.8 M 335.2,372.8 L 323.2,384.8" stroke="#2196F3" stroke-width="2" opacity="0.7"/>
<path d="M 673.1,327.3 L 685.1,339.3 M 685.1,327.3 L 673.1,339.3" stroke="#2196F3" stroke-width="2" opacity="0.7"/>
<path d="M 159.8,395.4 L 171.8,407.4 M 171.8,395.4 L 159.8,407.4" stroke="#2196F3" stroke-width="2" opacity="0.7"/>
<path d="M 452.7,375.4 L 464.7,387.4 M 464.7,375.4 L 452.7,387.4" stroke="#2196F3" stroke-width="2" opacity="0.7"/>
<path d="M 380.2,359.1 L 392.2,371.1 M 392.2,359.1 L 380.2,371.1" stroke="#2196F3" stroke-width="2" opacity="0.7"/>
<path d="M 500.6,365.4 L 512.6,377.4 M 512.6,365.4 L 500.6,377.4" stroke="#2196F3" stroke-width="2" opacity="0.7"/>
<path d="M 392.9,367.0 L 404.9,379.0 M 404.9,367.0 L 392.9,379.0" stroke="#2196F3" stroke-width="2" opacity="0.7"/>
<path d="M 237.3,370.6 L 249.3,382.6 M 249.3,370.6 L 237.3,382.6" stroke="#2196F3" stroke-width="2" opacity="0.7"/>
<path d="M 381.2,353.5 L 393.2,365.5 M 393.2,353.5 L 381.2,365.5" stroke="#2196F3" stroke-width="2" opacity="0.7"/>
<path d="M 492.8,317.4 L 504.8,329.4 M 504.8,317.4 L 492.8,329.4" stroke="#2196F3" stroke-width="2" opacity="0.7"/>
<path d="M 480.1,365.4 L 492.1,377.4 M 492.1,365.4 L 480.1,377.4" stroke="#2196F3" stroke-width="2" opacity="0.7"/>
<path d="M 383.5,409.1 L 395.5,421.1 M 395.5,409.1 L 383.5,421.1" stroke="#2196F3" stroke-width="2" opacity="0.7"/>
<path d="M 279.3,418.6 L 291.3,430.6 M 291.3,418.6 L 279.3,430.6" stroke="#2196F3" stroke-width="2" opacity="0.7"/>
<path d="M 519.2,337.1 L 531.2,349.1 M 531.2,337.1 L 519.2,349.1" stroke="#2196F3" stroke-width="2" opacity="0.7"/>
<path d="M 608.4,278.9 L 620.4,290.9 M 620.4,278.9 L 608.4,290.9" stroke="#2196F3" stroke-width="2" opacity="0.7"/>
<path d="M 353.4,345.9 L 365.4,357.9 M 365.4,345.9 L 353.4,357.9" stroke="#2196F3" stroke-width="2" opacity="0.7"/>
<path d="M 396.3,415.2 L 408.3,427.2 M 408.3,415.2 L 396.3,427.2" stroke="#2196F3" stroke-width="2" opacity="0.7"/>
<path d="M 499.1,346.9 L 511.1,358.9 M 511.1,346.9 L 499.1,358.9" stroke="#2196F3" stroke-width="2" opacity="0.7"/>
<path d="M 256.8,408.0 L 268.8,420.0 M 268.8,408.0 L 256.8,420.0" stroke="#2196F3" stroke-width="2" opacity="0.7"/>
<path d="M 496.7,309.2 L 508.7,321.2 M 508.7,309.2 L 496.7,321.2" stroke="#2196F3" stroke-width="2" opacity="0.7"/>
<path d="M 341.5,367.2 L 353.5,379.2 M 353.5,367.2 L 341.5,379.2" stroke="#2196F3" stroke-width="2" opacity="0.7"/>
<path d="M 511.8,404.8 L 523.8,416.8 M 523.8,404.8 L 511.8,416.8" stroke="#2196F3" stroke-width="2" opacity="0.7"/>
<path d="M 199.9,389.3 L 211.9,401.3 M 211.9,389.3 L 199.9,401.3" stroke="#2196F3" stroke-width="2" opacity="0.7"/>
<path d="M 607.9,213.0 L 619.9,225.0 M 619.9,213.0 L 607.9,225.0" stroke="#2196F3" stroke-width="2" opacity="0.7"/>
<path d="M 396.3,392.9 L 408.3,404.9 M 408.3,392.9 L 396.3,404.9" stroke="#2196F3" stroke-width="2" opacity="0.7"/>
<path d="M 207.7,423.4 L 219.7,435.4 M 219.7,423.4 L 207.7,435.4" stroke="#2196F3" stroke-width="2" opacity="0.7"/>
<path d="M 342.1,369.6 L 354.1,381.6 M 354.1,369.6 L 342.1,381.6" stroke="#2196F3" stroke-width="2" opacity="0.7"/>
<path d="M 361.1,418.8 L 373.1,430.8 M 373.1,418.8 L 361.1,430.8" stroke="#2196F3" stroke-width="2" opacity="0.7"/>
<path d="M 567.4,411.2 L 579.4,423.2 M 579.4,411.2 L 567.4,423.2" stroke="#607D8B" stroke-width="2" opacity="0.7"/>
<path d="M 68.2,429.8 L 80.2,441.8 M 80.2,429.8 L 68.2,441.8" stroke="#607D8B" stroke-width="2" opacity="0.7"/>
<path d="M 81.5,424.0 L 93.5,436.0 M 93.5,424.0 L 81.5,436.0" stroke="#607D8B" stroke-width="2" opacity="0.7"/>
<path d="M 69.3,433.2 L 81.3,445.2 M 81.3,433.2 L 69.3,445.2" stroke="#607D8B" stroke-width="2" opacity="0.7"/>
<path d="M 66.9,433.5 L 78.9,445.5 M 78.9,433.5 L 66.9,445.5" stroke="#607D8B" stroke-width="2" opacity="0.7"/>
<path d="M 133.5,433.2 L 145.5,445.2 M 145.5,433.2 L 133.5,445.2" stroke="#607D8B" stroke-width="2" opacity="0.7"/>
<path d="M 75.2,433.2 L 87.2,445.2 M 87.2,433.2 L 75.2,445.2" stroke="#607D8B" stroke-width="2" opacity="0.7"/>
<path d="M 567.4,414.9 L 579.4,426.9 M 579.4,414.9 L 567.4,426.9" stroke="#607D8B" stroke-width="2" opacity="0.7"/>
<path d="M 90.5,433.5 L 102.5,445.5 M 102.5,433.5 L 90.5,445.5" stroke="#607D8B" stroke-width="2" opacity="0.7"/>
<path d="M 141.2,432.1 L 153.2,444.1 M 153.2,432.1 L 141.2,444.1" stroke="#607D8B" stroke-width="2" opacity="0.7"/>
<path d="M 85.1,432.1 L 97.1,444.1 M 97.1,432.1 L 85.1,444.1" stroke="#607D8B" stroke-width="2" opacity="0.7"/>
<path d="M 279.3,412.3 L 291.3,424.3 M 291.3,412.3 L 279.3,424.3" stroke="#607D8B" stroke-width="2" opacity="0.7"/>
<path d="M 168.1,418.6 L 180.1,430.6 M 180.1,418.6 L 168.1,430.6" stroke="#607D8B" stroke-width="2" opacity="0.7"/>
<path d="M 77.3,433.6 L 89.3,445.6 M 89.3,433.6 L 77.3,445.6" stroke="#607D8B" stroke-width="2" opacity="0.7"/>
<line x1="643.8" y1="427.2" x2="663.8" y2="427.2" stroke="#e05c00" stroke-width="3"/>
<line x1="653.8" y1="417.2" x2="653.8" y2="437.2" stroke="#e05c00" stroke-width="3"/>
<line x1="621.7" y1="429.3" x2="641.7" y2="429.3" stroke="#e05c00" stroke-width="3"/>
<line x1="631.7" y1="419.3" x2="631.7" y2="439.3" stroke="#e05c00" stroke-width="3"/>
<line x1="542.7" y1="436.1" x2="562.7" y2="436.1" stroke="#e05c00" stroke-width="3"/>
<line x1="552.7" y1="426.1" x2="552.7" y2="446.1" stroke="#e05c00" stroke-width="3"/>
<line x1="410.4" y1="437.2" x2="430.4" y2="437.2" stroke="#e05c00" stroke-width="3"/>
<line x1="420.4" y1="427.2" x2="420.4" y2="447.2" stroke="#e05c00" stroke-width="3"/>
<line x1="686" y1="40" x2="694" y2="40" stroke="#e05c00" stroke-width="2"/>
<line x1="690" y1="36" x2="690" y2="44" stroke="#e05c00" stroke-width="2"/>
<text x="705" y="44" font-size="11" fill="#333">score-more-disk-space</text>
<path d="M 686,54 L 694,62 M 694,54 L 686,62" stroke="#2196F3" stroke-width="2"/>
<text x="705" y="62" font-size="11" fill="#333">jlumbroso</text>
<path d="M 686,72 L 694,80 M 694,72 L 686,80" stroke="#4CAF50" stroke-width="2"/>
<text x="705" y="80" font-size="11" fill="#333">enderson</text>
<path d="M 686,90 L 694,98 M 694,90 L 686,98" stroke="#9C27B0" stroke-width="2"/>
<text x="705" y="98" font-size="11" fill="#333">adityagarg</text>
<path d="M 686,108 L 694,116 M 694,108 L 686,116" stroke="#FF9800" stroke-width="2"/>
<text x="705" y="116" font-size="11" fill="#333">easimon</text>
<path d="M 686,126 L 694,134 M 694,126 L 686,134" stroke="#607D8B" stroke-width="2"/>
<text x="705" y="134" font-size="11" fill="#333">manual</text>
</svg>